<svg width="92" height="65" viewBox="0 0 92 65" fill="none" xmlns="http://www.w3.org/2000/svg">
<path fill-rule="evenodd" clip-rule="evenodd" d="M43.6485 24C43.1542 22.9482 43.5179 23.2137 42.8045 22.3168C42.7553 22.2549 42.1039 21.5239 42.0967 21.5172C41.5647 20.9881 41.7323 21.1545 41.3119 20.8601C36.0653 25.507 32.8182 32.9273 23.8287 28.4613C17.0908 25.113 14.3894 15.6825 19.2637 9.71317C37.8028 -12.9901 47.0492 41.0858 69.5232 33.1696C77.0628 30.5134 80.9915 23.5267 80.625 15.7339C80.106 4.70492 66.7564 -4.81621 56.4039 2.85218C54.5864 4.19831 50.4027 8.2078 49.4388 10.1661L51.0754 12.6156C51.7391 13.3425 51.2007 12.8661 51.9679 13.3906C57.2561 8.6559 61.1259 0.68901 69.9847 6.01411C85.9823 15.6311 68.8748 40.7524 55.1031 24.3646C50.949 19.4215 46.7305 12.8476 42.4875 8.39457C36.8979 2.52798 32.7977 -2.12233 23.8035 1.00426C7.68271 6.60814 9.66222 30.4333 25.6991 33.737C32.9791 35.2364 40.4632 30.1942 43.6485 24Z" fill="white"/>
<path d="M4.96455 53.0909H7.24438V60.6974C7.24438 61.4006 7.08635 62.0114 6.7703 62.5298C6.4578 63.0483 6.02279 63.4478 5.46526 63.7283C4.90773 64.0089 4.25965 64.1491 3.52101 64.1491C2.86405 64.1491 2.26746 64.0337 1.73124 63.8029C1.19857 63.5685 0.775983 63.2134 0.463483 62.7376C0.150983 62.2582 -0.00349128 61.6562 5.98505e-05 60.9318H2.29587C2.30297 61.2195 2.36157 61.4663 2.47165 61.6722C2.58529 61.8746 2.73976 62.0309 2.93507 62.141C3.13394 62.2475 3.36831 62.3008 3.6382 62.3008C3.92229 62.3008 4.16199 62.2404 4.3573 62.1197C4.55617 61.9954 4.70709 61.8143 4.81007 61.5763C4.91306 61.3384 4.96455 61.0455 4.96455 60.6974V53.0909Z" fill="white"/>
<path d="M9.15134 64V53.0909H11.4578V57.592H16.14V53.0909H18.4411V64H16.14V59.4936H11.4578V64H9.15134Z" fill="white"/>
<path d="M20.2256 64V62.631L25.6694 54.9925H20.2149V53.0909H28.5672V54.4599L23.118 62.0984H28.5778V64H20.2256Z" fill="white"/>
<path d="M37.6865 64H33.8193V53.0909H37.7185C38.8158 53.0909 39.7604 53.3093 40.5523 53.7461C41.3442 54.1793 41.9532 54.8026 42.3793 55.6158C42.809 56.429 43.0239 57.402 43.0239 58.5348C43.0239 59.6712 42.809 60.6477 42.3793 61.4645C41.9532 62.2812 41.3406 62.908 40.5416 63.3448C39.7462 63.7816 38.7945 64 37.6865 64ZM36.1258 62.0238H37.5906C38.2724 62.0238 38.8459 61.903 39.3111 61.6616C39.7799 61.4165 40.1315 61.0383 40.3658 60.527C40.6038 60.0121 40.7227 59.348 40.7227 58.5348C40.7227 57.7287 40.6038 57.07 40.3658 56.5586C40.1315 56.0472 39.7817 55.6708 39.3165 55.4293C38.8513 55.1879 38.2778 55.0671 37.5959 55.0671H36.1258V62.0238Z" fill="white"/>
<path d="M47.0389 53.0909V64H44.7324V53.0909H47.0389Z" fill="white"/>
<path d="M56.1702 56.6172C56.0956 56.358 55.9908 56.1289 55.8559 55.93C55.7209 55.7276 55.5558 55.5572 55.3605 55.4187C55.1687 55.2766 54.9486 55.1683 54.7 55.0937C54.455 55.0192 54.1833 54.9819 53.885 54.9819C53.3275 54.9819 52.8374 55.1204 52.4148 55.3974C51.9958 55.6744 51.6691 56.0774 51.4347 56.6065C51.2003 57.1321 51.0832 57.7749 51.0832 58.5348C51.0832 59.2947 51.1986 59.941 51.4294 60.4737C51.6602 61.0064 51.9869 61.413 52.4095 61.6935C52.8321 61.9705 53.331 62.109 53.9063 62.109C54.4283 62.109 54.874 62.0167 55.2433 61.832C55.6162 61.6438 55.9003 61.3793 56.0956 61.0383C56.2945 60.6974 56.3939 60.2944 56.3939 59.8292L56.8626 59.8984H54.0501V58.1619H58.6151V59.5362C58.6151 60.495 58.4127 61.3189 58.0079 62.0078C57.603 62.6932 57.0455 63.2223 56.3353 63.5952C55.6251 63.9645 54.8119 64.1491 53.8957 64.1491C52.8729 64.1491 51.9745 63.9236 51.2003 63.4727C50.4262 63.0181 49.8225 62.3736 49.3893 61.5391C48.9596 60.701 48.7447 59.7067 48.7447 58.5561C48.7447 57.6719 48.8726 56.8835 49.1283 56.191C49.3875 55.495 49.7497 54.9055 50.2149 54.4226C50.6801 53.9396 51.2217 53.5721 51.8396 53.32C52.4574 53.0678 53.1268 52.9418 53.8477 52.9418C54.4656 52.9418 55.0409 53.0323 55.5736 53.2134C56.1062 53.391 56.5785 53.6431 56.9905 53.9698C57.406 54.2965 57.7451 54.6854 58.0079 55.1364C58.2707 55.5838 58.4393 56.0774 58.5139 56.6172H56.1702Z" fill="white"/>
<path d="M62.6541 53.0909V64H60.3476V53.0909H62.6541Z" fill="white"/>
<path d="M64.1362 54.9925V53.0909H73.0958V54.9925H69.7559V64H67.4761V54.9925H64.1362Z" fill="white"/>
<path d="M75.1186 64H72.647L76.413 53.0909H79.3853L83.1459 64H80.6743L77.9417 55.5838H77.8565L75.1186 64ZM74.9641 59.712H80.8022V61.5124H74.9641V59.712Z" fill="white"/>
<path d="M84.459 64V53.0909H86.7654V62.0984H91.4423V64H84.459Z" fill="white"/>
</svg>
